<svg viewBox="0 0 154 154" focusable="false" class="chakra-icon css-1jr3ehu">
<path fill-rule="evenodd" clip-rule="evenodd" d="M113.003 44.8032L123.849 38.5856L121.628 46.677C121.372 47.6139 122.397 48.4656 123.251 47.9545L142.126 37.1376C143.151 36.5414 143.663 35.2639 143.151 34.2418C142.553 33.0494 141.101 32.5383 139.991 33.2197L129.059 39.5225L131.279 31.4311C131.535 30.4942 130.511 29.6425 129.657 30.1535L110.697 41.0556C109.586 41.737 109.245 43.1849 110.013 44.2921C110.697 45.1439 112.063 45.3994 113.003 44.8032ZM95.8435 96.8456C86.876 98.4638 77.4815 88.3283 75.0047 74.2749C72.528 60.3066 77.8231 47.6159 86.876 45.9976C95.8435 44.3794 105.238 54.5149 107.715 68.5683C110.192 82.5366 104.811 95.2273 95.8435 96.8456ZM25.1297 87.0538L22.9092 87.4797C19.5784 88.0759 16.8454 90.3755 15.7351 93.4417C15.2227 94.9748 13.8562 95.9969 12.2335 96.1672C10.3546 96.2524 8.73193 95.1452 8.21949 93.3566C7.87787 92.1641 8.13409 91.2272 8.39031 90.631C9.75679 87.5648 9.15895 84.0728 6.85301 81.6879C6.42599 81.1769 5.82815 80.4103 5.74275 79.2179C5.65734 77.3441 6.76761 75.7259 8.56112 75.2148C8.64652 75.2148 8.71057 75.1935 8.77463 75.1722C8.83868 75.1509 8.90273 75.1297 8.98814 75.1297C10.44 74.8741 11.8919 75.3852 12.746 76.5776C14.7957 79.1328 18.1265 80.4103 21.5427 79.8141L23.7632 79.3883L26.0691 81.0065L24.4464 83.3062L26.7524 84.9245L25.1297 87.0538ZM103.015 47.6116C97.8903 42.3309 91.8265 39.9461 85.9336 41.0533C80.0406 42.0754 64.2407 48.2929 51.1737 55.5326C40.5835 61.3243 33.3241 66.8605 29.2247 72.056C28.883 72.4819 28.3706 72.8226 27.7728 72.9078L20.4279 74.1854C19.1469 74.4409 17.7804 73.9298 17.0117 72.9929C14.6204 69.9267 10.6064 68.6492 6.84854 69.7564C2.57828 71.034 -0.240082 75.0371 0.0161328 79.466C0.186943 81.7657 1.1264 83.895 2.74909 85.5133C3.43233 86.1947 3.60314 87.3019 3.26152 88.1536C1.89504 91.0495 2.15126 94.5416 3.94476 97.3522C5.73827 100.163 9.06907 101.781 12.3999 101.611C12.7646 101.611 13.067 101.549 13.4136 101.478L13.5117 101.457L13.5955 101.441C17.0117 100.844 19.9155 98.4595 21.0258 95.0526C21.3674 93.9454 22.4777 93.0085 23.8441 92.8381L31.1036 91.5605C31.7014 91.4754 32.2992 91.816 32.3846 92.4123C34.9468 103.655 39.5587 113.961 45.8786 122.478C46.2203 122.989 46.9889 123.074 47.5013 122.648L57.2375 115.068L58.5186 114.131C60.7391 112.428 59.9705 108.851 57.2375 108.254L53.0527 107.232C52.4548 107.062 51.857 106.636 51.6008 106.125C50.5759 104.081 49.551 101.866 48.697 99.6519C48.3554 98.8002 49.124 97.9485 49.9781 98.204C52.2309 98.7486 54.6473 99.1844 57.1839 99.6419C57.8207 99.7567 58.4651 99.8729 59.1164 99.9926C73.8915 102.292 90.8017 102.803 96.6946 101.696C102.588 100.674 107.456 96.4154 110.445 89.6867C113.263 83.384 114.032 75.4629 112.665 67.6271C111.299 59.7912 107.883 52.6367 103.015 47.6116ZM92.4225 77.769C90.8852 78.0245 88.5793 75.5545 87.9814 71.9773C87.3836 68.4 88.6647 65.3338 90.202 65.0783C91.7393 64.8228 94.0452 67.2928 94.643 70.87C95.3263 74.3621 94.0452 77.5135 92.4225 77.769ZM89.2692 59.5393C84.3157 60.391 81.3266 66.3531 82.4368 72.9965C83.6325 79.64 88.4152 84.1541 93.4541 83.3024C98.4076 82.4507 101.397 76.4886 100.286 69.8451C99.0908 63.2017 94.2227 58.6876 89.2692 59.5393ZM138.534 64.2176L150.918 62.0031C152.199 61.7476 153.48 62.6845 153.566 64.1324C153.651 65.3248 152.797 66.3469 151.601 66.5172L130.165 70.2648C129.225 70.4352 128.456 69.3279 129.054 68.4762L133.922 61.5772L121.624 63.7065C120.514 63.8769 119.318 63.1955 118.977 62.0883C118.635 60.8107 119.489 59.5331 120.77 59.2776L142.292 55.53C143.232 55.3596 144 56.4669 143.402 57.3186L138.534 64.2176ZM137.697 90.797L150.081 93.0115C151.447 93.267 152.216 94.5446 151.874 95.737C151.532 96.9295 150.422 97.5257 149.226 97.3553L127.79 93.6077C126.85 93.4374 126.509 92.1598 127.363 91.5636L134.281 86.7088L121.982 84.5795C120.787 84.4091 119.933 83.387 120.018 82.1946C120.103 80.8319 121.384 79.895 122.665 80.1505L144.188 83.8981C145.127 84.0684 145.469 85.346 144.615 85.9422L137.697 90.797Z">
</path>
</svg>