<svg width="21" height="24" viewBox="0 0 21 24" fill="none" xmlns="http://www.w3.org/2000/svg">
    <path d="M20.1419 14.4188L18.3114 13.2657C18.4962 12.1782 18.4962 11.0625 18.3114 9.97505L20.1419 8.82192C20.3524 8.69067 20.4469 8.4188 20.3782 8.16567C19.9012 6.49692 19.0891 4.98754 18.0278 3.73129C17.8645 3.53911 17.5981 3.49223 17.3919 3.62348L15.5614 4.77661C14.7923 4.05473 13.9071 3.49692 12.9489 3.13129V0.829731C12.9489 0.567231 12.7813 0.337544 12.545 0.281294C10.968 -0.103081 9.35241 -0.0843311 7.8528 0.281294C7.61647 0.337544 7.4489 0.567231 7.4489 0.829731V3.13598C6.49499 3.50629 5.60983 4.06411 4.8364 4.78129L3.01022 3.62817C2.79968 3.49692 2.53757 3.53911 2.37429 3.73598C1.31296 4.98755 0.500849 6.49692 0.0238958 8.17036C-0.0491511 8.42348 0.049677 8.69536 0.260224 8.82661L2.09069 9.97973C1.90593 11.0672 1.90593 12.1829 2.09069 13.2704L0.260224 14.4235C0.049677 14.5547 -0.0448542 14.8266 0.0238958 15.0797C0.500849 16.7485 1.31296 18.2579 2.37429 19.5141C2.53757 19.7063 2.80397 19.7532 3.01022 19.6219L4.84069 18.4688C5.60983 19.1907 6.49499 19.7485 7.45319 20.1141V22.4204C7.45319 22.6829 7.62077 22.9125 7.8571 22.9688C9.43405 23.3532 11.0497 23.3344 12.5493 22.9688C12.7856 22.9125 12.9532 22.6829 12.9532 22.4204V20.1141C13.9071 19.7438 14.7923 19.186 15.5657 18.4688L17.3962 19.6219C17.6067 19.7532 17.8688 19.711 18.0321 19.5141C19.0934 18.2625 19.9055 16.7532 20.3825 15.0797C20.4469 14.8219 20.3524 14.55 20.1419 14.4188ZM10.1989 15.3704C8.30398 15.3704 6.7614 13.6875 6.7614 11.6204C6.7614 9.55317 8.30398 7.87036 10.1989 7.87036C12.0938 7.87036 13.6364 9.55317 13.6364 11.6204C13.6364 13.6875 12.0938 15.3704 10.1989 15.3704Z" fill="grey"/>
</svg>
